<?xml version="1.0" standalone="no"?>
<!DOCTYPE svg PUBLIC "-//W3C//DTD SVG 20010904//EN"
 "http://www.w3.org/TR/2001/REC-SVG-20010904/DTD/svg10.dtd">
<svg version="1.0" xmlns="http://www.w3.org/2000/svg"
 width="540.000000pt" height="540.000000pt" viewBox="0 0 540.000000 540.000000"
 preserveAspectRatio="xMidYMid meet">

<g transform="translate(0.000000,540.000000) scale(0.100000,-0.100000)"
fill="#ffff" stroke="none">
<path d="M1310 2945 l0 -1175 1360 0 1360 0 0 1175 0 1175 -1360 0 -1360 0 0
-1175z m825 515 c-62 -707 -115 -1410 -115 -1519 l0 -91 -37 0 c-21 0 -125 -5
-232 -10 -107 -5 -196 -8 -199 -6 -2 3 5 74 17 158 42 312 103 960 151 1608
12 156 22 285 23 287 1 1 99 28 217 61 184 51 215 57 218 43 1 -9 -18 -248
-43 -531z m1431 -630 c172 -481 323 -899 334 -928 l19 -52 -236 2 -236 3 -109
335 c-60 184 -161 494 -225 689 l-115 354 -15 -34 c-8 -19 -88 -252 -178 -519
-90 -267 -191 -561 -223 -655 l-60 -170 -237 -3 c-197 -2 -236 0 -233 11 2 8
154 427 338 931 l335 916 264 -2 263 -3 314 -875z"/>
</g>
</svg>
