<?xml version="1.0" standalone="no"?>
<!DOCTYPE svg PUBLIC "-//W3C//DTD SVG 20010904//EN"
 "http://www.w3.org/TR/2001/REC-SVG-20010904/DTD/svg10.dtd">
<svg version="1.0" xmlns="http://www.w3.org/2000/svg"
 width="540.000000pt" height="540.000000pt" viewBox="0 0 540.000000 540.000000"
 preserveAspectRatio="xMidYMid meet">

<g transform="translate(0.000000,540.000000) scale(0.100000,-0.100000)"
fill="#ffff" stroke="none">
<path d="M1310 2945 l0 -1175 1360 0 1360 0 0 1175 0 1175 -1360 0 -1360 0 0
-1175z m825 515 c-62 -707 -115 -1410 -115 -1519 l0 -91 -37 0 c-21 0 -125 -5
-232 -10 -107 -5 -196 -8 -199 -6 -2 3 5 74 17 158 42 312 103 960 151 1608
12 156 22 285 23 287 1 1 99 28 217 61 184 51 215 57 218 43 1 -9 -18 -248
-43 -531z m1431 -630 c172 -481 323 -899 334 -928 l19 -52 -236 2 -236 3 -109
335 c-60 184 -161 494 -225 689 l-115 354 -15 -34 c-8 -19 -88 -252 -178 -519
-90 -267 -191 -561 -223 -655 l-60 -170 -237 -3 c-197 -2 -236 0 -233 11 2 8
154 427 338 931 l335 916 264 -2 263 -3 314 -875z"/>
<!-- <path d="M1160 1635 l0 -185 40 0 40 0 0 185 0 185 -40 0 -40 0 0 -185z"/>
<path d="M3641 1686 c2 -2 24 -6 48 -9 29 -4 40 -2 30 4 -13 8 -88 14 -78 5z"/>
<path d="M1280 1570 c0 -103 1 -110 20 -110 17 0 19 8 22 73 l3 72 48 -72 c32
-49 54 -73 67 -73 19 0 20 8 20 110 0 103 -1 110 -20 110 -18 0 -20 -7 -20
-72 l0 -73 -48 72 c-35 54 -53 73 -69 73 -22 0 -23 -3 -23 -110z"/>
<path d="M1490 1660 c0 -13 7 -20 20 -20 19 0 20 -7 20 -90 0 -83 1 -90 20
-90 19 0 20 7 20 90 0 83 1 90 20 90 13 0 20 7 20 20 0 18 -7 20 -60 20 -53 0
-60 -2 -60 -20z"/>
<path d="M1640 1570 c0 -102 1 -110 19 -110 17 0 20 8 23 48 l3 47 28 -47 c18
-31 35 -48 47 -48 25 0 25 4 -2 51 -20 36 -20 40 -5 57 22 25 22 75 -1 95 -12
11 -36 17 -65 17 l-47 0 0 -110z m88 48 c-2 -15 -10 -23 -23 -23 -13 0 -21 8
-23 23 -3 18 1 22 23 22 22 0 26 -4 23 -22z"/>
<path d="M1868 1638 c-8 -24 -27 -73 -41 -110 -25 -66 -25 -68 -6 -68 11 0 24
11 31 25 10 22 18 25 59 25 42 0 48 -3 53 -25 4 -16 13 -25 26 -25 11 0 20 3
20 8 0 4 -18 52 -39 107 -33 85 -42 100 -62 103 -20 2 -27 -4 -41 -40z m57
-60 c7 -25 5 -28 -20 -28 -22 0 -26 3 -20 18 4 9 10 25 12 35 7 23 19 11 28
-25z"/>
<path d="M2050 1570 l0 -112 62 4 c52 4 65 9 86 33 21 25 24 36 20 82 -6 74
-29 95 -108 101 l-60 4 0 -112z m110 50 c41 -41 12 -120 -45 -120 -24 0 -25 2
-25 70 0 68 1 70 25 70 14 0 34 -9 45 -20z"/>
<path d="M2260 1570 l0 -110 60 0 c53 0 60 2 60 19 0 16 -8 20 -37 23 -33 3
-38 7 -41 31 -3 26 -1 27 37 27 34 0 41 3 41 19 0 16 -8 20 -37 23 -27 2 -39
8 -41 21 -3 14 4 17 37 17 34 0 41 3 41 20 0 18 -7 20 -60 20 l-60 0 0 -110z"/>
<path d="M2424 1655 c-15 -23 -15 -27 0 -50 9 -13 30 -34 46 -47 17 -12 30
-28 30 -35 0 -21 -29 -27 -48 -10 -24 22 -52 6 -36 -20 32 -52 116 -35 122 24
3 25 -4 36 -37 65 -49 42 -54 62 -12 53 36 -8 52 12 26 32 -31 22 -72 16 -91
-12z"/>
<path d="M2718 1638 c-8 -24 -27 -73 -41 -110 -25 -66 -25 -68 -6 -68 11 0 24
11 31 25 10 22 18 25 59 25 42 0 48 -3 53 -25 4 -16 13 -25 26 -25 11 0 20 3
20 8 0 4 -18 52 -39 107 -33 85 -42 100 -62 103 -20 2 -27 -4 -41 -40z m57
-60 c7 -25 5 -28 -20 -28 -22 0 -26 3 -20 18 4 9 10 25 12 35 7 23 19 11 28
-25z"/>
<path d="M2900 1570 l0 -112 62 4 c52 4 65 9 86 33 21 25 24 36 20 82 -6 74
-29 95 -108 101 l-60 4 0 -112z m110 50 c41 -41 12 -120 -45 -120 -24 0 -25 2
-25 70 0 68 1 70 25 70 14 0 34 -9 45 -20z"/>
<path d="M3100 1674 c0 -3 17 -53 37 -110 31 -86 40 -104 57 -104 17 0 27 18
59 104 20 57 37 106 37 110 0 3 -9 6 -19 6 -15 0 -25 -15 -40 -57 -38 -103
-37 -102 -46 -73 -29 93 -47 130 -66 130 -10 0 -19 -3 -19 -6z"/>
<path d="M3322 1573 c3 -103 4 -108 26 -111 22 -3 22 -2 22 107 l0 111 -25 0
-26 0 3 -107z"/>
<path d="M3428 1669 c-32 -18 -22 -64 22 -102 22 -19 40 -39 40 -46 0 -20 -30
-24 -48 -8 -24 22 -52 6 -36 -20 32 -52 116 -35 122 23 2 25 -4 37 -37 67 -49
44 -53 61 -11 52 41 -9 56 2 34 26 -19 21 -59 24 -86 8z"/>
<path d="M3840 1570 c0 -103 1 -110 20 -110 17 0 20 7 20 48 l1 47 25 -47 c17
-33 31 -48 44 -48 25 0 25 10 -1 54 l-21 36 21 26 c43 54 12 104 -64 104 l-45
0 0 -110z m85 60 c8 -13 -13 -40 -31 -40 -8 0 -14 10 -14 25 0 18 5 25 19 25
11 0 23 -5 26 -10z"/>
<path d="M4000 1675 c0 -3 14 -29 30 -58 23 -41 30 -66 30 -105 0 -45 3 -52
20 -52 17 0 20 7 20 45 0 31 10 65 30 105 35 70 35 70 12 70 -11 0 -27 -14
-38 -35 -10 -19 -21 -35 -24 -35 -4 0 -14 16 -23 35 -11 23 -24 35 -37 35 -11
0 -20 -2 -20 -5z"/>
<path d="M3650 1653 c36 -2 75 -8 87 -15 24 -12 39 -6 28 11 -4 7 -40 10 -93
9 -77 -2 -80 -2 -22 -5z"/>
<path d="M3653 1623 c48 -2 87 -8 87 -13 0 -6 11 -10 25 -10 14 0 25 4 25 9 0
13 -65 21 -150 19 l-75 -2 88 -3z"/>
<path d="M3551 1586 c10 -8 249 -13 249 -5 0 5 -57 9 -127 9 -69 0 -124 -2
-122 -4z"/>
<path d="M3551 1556 c10 -8 249 -13 249 -5 0 5 -57 9 -127 9 -69 0 -124 -2
-122 -4z"/>
<path d="M3648 1523 c50 -2 92 -8 92 -13 0 -6 -37 -11 -82 -12 l-83 -2 78 -3
c46 -2 75 -8 72 -13 -4 -6 3 -10 13 -10 17 0 52 37 52 55 0 3 -53 4 -117 3
-116 -2 -117 -2 -25 -5z"/>
<path d="M3621 1456 c8 -8 98 -10 105 -3 4 4 -19 7 -51 7 -32 0 -56 -2 -54 -4z"/> -->
</g>
</svg>
